<svg xmlns="http://www.w3.org/2000/svg" viewBox="0 -1.9500000476837158 337.20001220703125 40.5" data-asc="0.75"><g fill="#000000"><g fill="#000000" transform="translate(0, 0)"><path d="M28.25 30.40L39.65 30.40L39.65 37.50L18.75 37.50L28.25 30.40M0 19.15Q0 15.35 1.45 11.95Q2.90 8.55 5.48 5.92Q8.05 3.30 11.45 1.80Q14.85 0.30 18.75 0.30Q22.60 0.30 26 1.80Q29.40 3.30 32.02 5.92Q34.65 8.55 36.13 11.95Q37.60 15.35 37.60 19.15Q37.60 23.05 36.13 26.45Q34.65 29.85 32.02 32.42Q29.40 35 26 36.45Q22.60 37.90 18.75 37.90Q14.85 37.90 11.45 36.45Q8.05 35 5.48 32.42Q2.90 29.85 1.45 26.45Q0 23.05 0 19.15M7.50 19.15Q7.50 21.55 8.38 23.67Q9.25 25.80 10.83 27.42Q12.40 29.05 14.48 29.95Q16.55 30.85 19 30.85Q21.35 30.85 23.38 29.95Q25.40 29.05 26.90 27.45Q28.40 25.85 29.25 23.73Q30.10 21.60 30.10 19.15Q30.10 16.75 29.23 14.63Q28.35 12.50 26.83 10.90Q25.30 9.30 23.25 8.40Q21.20 7.50 18.80 7.50Q16.40 7.50 14.35 8.40Q12.30 9.30 10.75 10.90Q9.20 12.50 8.35 14.63Q7.50 16.75 7.50 19.15ZM52.80 38.55Q49.85 38.55 47.85 36.73Q45.85 34.90 45.75 32L45.75 15.65L52.75 15.65L52.75 29.40Q52.85 30.85 53.50 31.73Q54.15 32.60 55.70 32.60Q57.25 32.60 58.38 31.55Q59.50 30.50 60.13 28.67Q60.75 26.85 60.75 24.55L60.75 15.65L67.75 15.65L67.75 37.50L61.40 37.50L60.85 33.50L60.95 33.95Q60.20 35.30 59.05 36.35Q57.90 37.40 56.33 37.98Q54.75 38.55 52.80 38.55ZM74.95 15.65L81.95 15.65L81.95 37.50L74.95 37.50L74.95 15.65M74.80 7.90Q74.80 6.35 76.03 5.35Q77.25 4.35 78.65 4.35Q80.05 4.35 81.23 5.35Q82.40 6.35 82.40 7.90Q82.40 9.45 81.23 10.42Q80.05 11.40 78.65 11.40Q77.25 11.40 76.03 10.42Q74.80 9.45 74.80 7.90ZM107.70 35.55Q106.25 36.70 104.08 37.40Q101.90 38.10 99.80 38.10Q96.05 38.10 93.28 36.73Q90.50 35.35 88.98 32.77Q87.45 30.20 87.45 26.55Q87.45 22.90 89.10 20.32Q90.75 17.75 93.43 16.40Q96.10 15.05 99.05 15.05Q102.00 15.05 104.18 15.85Q106.35 16.65 107.90 17.95L104.50 22.45Q103.80 21.90 102.58 21.32Q101.35 20.75 99.70 20.75Q98.25 20.75 97.05 21.50Q95.85 22.25 95.15 23.55Q94.45 24.85 94.45 26.55Q94.45 28.15 95.20 29.50Q95.95 30.85 97.28 31.63Q98.60 32.40 100.40 32.40Q101.55 32.40 102.53 32.08Q103.50 31.75 104.20 31.15L107.70 35.55ZM113.10 37.50L113.10-1.95L120.10-1.95L120.10 37.50L113.10 37.50M125.65 22.65L135.55 37.50L127.40 37.50L121.05 26.65L125.65 22.65M118.00 31.45L117.30 24.80L130.50 15.10L134.75 18.85L118.00 31.45ZM185.40 34.45Q184.80 34.95 183.18 35.80Q181.55 36.65 179.20 37.30Q176.85 37.95 174 37.90Q169.65 37.80 166.23 36.33Q162.80 34.85 160.43 32.30Q158.05 29.75 156.80 26.45Q155.55 23.15 155.55 19.40Q155.55 15.20 156.83 11.70Q158.10 8.20 160.48 5.65Q162.85 3.10 166.15 1.70Q169.45 0.30 173.45 0.30Q177.15 0.30 180 1.30Q182.85 2.30 184.65 3.45L181.80 10.30Q180.55 9.35 178.48 8.32Q176.40 7.30 173.70 7.30Q171.60 7.30 169.68 8.17Q167.75 9.05 166.28 10.65Q164.80 12.25 163.95 14.38Q163.10 16.50 163.10 19Q163.10 21.65 163.88 23.85Q164.65 26.05 166.10 27.63Q167.55 29.20 169.58 30.05Q171.60 30.90 174.15 30.90Q177.10 30.90 179.20 29.95Q181.30 29 182.40 27.95L185.40 34.45ZM189.80 26.30Q189.80 22.95 191.38 20.30Q192.95 17.65 195.80 16.13Q198.65 14.60 202.35 14.60Q206.10 14.60 208.85 16.13Q211.60 17.65 213.08 20.30Q214.55 22.95 214.55 26.30Q214.55 29.65 213.08 32.33Q211.60 35 208.85 36.55Q206.10 38.10 202.25 38.10Q198.65 38.10 195.83 36.70Q193 35.30 191.40 32.65Q189.80 30 189.80 26.30M196.85 26.35Q196.85 28.05 197.55 29.42Q198.25 30.80 199.45 31.60Q200.65 32.40 202.15 32.40Q203.80 32.40 205 31.60Q206.20 30.80 206.85 29.42Q207.50 28.05 207.50 26.35Q207.50 24.60 206.85 23.25Q206.20 21.90 205 21.10Q203.80 20.30 202.15 20.30Q200.65 20.30 199.45 21.10Q198.25 21.90 197.55 23.25Q196.85 24.60 196.85 26.35ZM226.40 15.65L226.95 19.55L226.85 19.20Q228.00 17.15 230.10 15.88Q232.20 14.60 235.25 14.60Q238.35 14.60 240.43 16.42Q242.50 18.25 242.55 21.15L242.55 37.50L235.55 37.50L235.55 23.75Q235.50 22.30 234.78 21.43Q234.05 20.55 232.35 20.55Q230.75 20.55 229.55 21.60Q228.35 22.65 227.70 24.45Q227.05 26.25 227.05 28.60L227.05 37.50L220.05 37.50L220.05 15.65L226.40 15.65ZM258.75 37.95L245.65 15.65L253.95 15.65L261.40 30.75L257.10 30.60L263.55 15.65L271.35 15.65L258.95 37.95L258.75 37.95ZM285.45 38.10Q281.45 38.10 278.68 36.60Q275.90 35.10 274.45 32.45Q273 29.80 273 26.35Q273 23.05 274.70 20.40Q276.40 17.75 279.25 16.17Q282.10 14.60 285.60 14.60Q290.30 14.60 293.33 17.32Q296.35 20.05 297.25 25.20L280.25 30.60L278.70 26.80L291 22.65L289.55 23.30Q289.15 22 288.13 21.02Q287.10 20.05 285.05 20.05Q283.50 20.05 282.33 20.77Q281.15 21.50 280.53 22.82Q279.90 24.15 279.90 25.95Q279.90 28 280.65 29.38Q281.40 30.75 282.70 31.45Q284 32.15 285.60 32.15Q286.75 32.15 287.83 31.75Q288.90 31.35 289.95 30.70L293.05 35.90Q291.30 36.90 289.28 37.50Q287.25 38.10 285.45 38.10ZM308.65 15.65L309.30 21.65L309.15 20.75Q310.10 18.80 311.75 17.42Q313.40 16.05 315.02 15.30Q316.65 14.55 317.50 14.55L317.15 21.55Q314.70 21.25 312.95 22.35Q311.20 23.45 310.25 25.25Q309.30 27.05 309.30 28.95L309.30 37.50L302.35 37.50L302.35 15.65L308.65 15.65ZM324.90 6.05L331.90 6.05L331.90 15.55L337.20 15.55L337.20 21L331.90 21L331.90 37.50L324.90 37.50L324.90 21L321.50 21L321.50 15.55L324.90 15.55L324.90 6.05Z"/></g></g></svg>